<svg xmlns="http://www.w3.org/2000/svg" width="32" height="32" fill="none" viewBox="0 0 1000 1000"><path fill="#ff2d00" d="m499.968 710.04 35.336 35.336a291.26 291.26 0 0 0 205.959 85.312c0-133.245-108.018-241.296-241.295-241.296S258.672 697.411 258.672 830.688a291.26 291.26 0 0 0 205.959-85.312zM343.282 438.609l-48.285 12.948c-74.595 19.965-138.22 68.791-176.841 135.669 115.417 66.622 262.982 27.076 329.604-88.309 66.623-115.418 27.076-262.982-88.309-329.605a291.25 291.25 0 0 0-29.086 221.012l12.949 48.285zM656.718 438.609l12.948-48.285c19.997-74.627 9.504-154.102-29.117-221.012-115.417 66.623-154.932 214.187-88.309 329.605 66.622 115.417 214.187 154.931 329.604 88.309-38.621-66.91-102.246-115.704-176.841-135.701l-48.285-12.948z"/></svg>