<svg xmlns="http://www.w3.org/2000/svg" width="320" height="98" fill="none" viewBox="0 0 3200 979"><g fill="#fff" clip-path="url(#a)"><path d="M1027.87 419.53c0-160.831 102.21-275.834 273.57-275.834 145.04 0 239 81.931 254.78 193.138h-94.69c-16.52-71.406-72.14-115.736-159.33-115.736-116.5 0-183.38 78.167-183.38 198.401 0 120.233 66.88 198.4 183.38 198.4 87.19 0 142.78-44.33 159.33-115.736h94.69c-15.78 111.239-109.74 193.138-254.78 193.138-171.36 0-273.57-115.003-273.57-275.834zM1602.02 156.479h81.93V682.57h-81.93zM1732.77 507.445c0-102.947 65.38-184.145 174.36-184.145 46.59 0 88.69 21.049 109.74 56.354v-47.36h81.93v350.239h-81.93v-47.36c-21.05 35.336-69.14 56.353-111.98 56.353-112.73 0-172.12-81.165-172.12-184.145zm287.86 0c0-60.116-33.81-111.239-103.71-111.239-63.88 0-102.22 47.359-102.22 111.239s38.34 111.24 102.22 111.24c69.9 0 103.71-51.091 103.71-111.24M2173.91 332.33h81.93v67.643c12.79-49.592 54.85-72.14 93.19-72.14 12.79 0 23.31.765 32.31 2.998V406c-12.79-1.499-19.55-1.499-32.31-1.499-57.89 0-93.19 43.597-93.19 123.263V682.6h-81.93V332.33M2399.44 221.127c0-33.805 24.81-60.882 60.88-60.882s60.88 27.045 60.88 60.882c0 33.838-24.81 60.882-60.88 60.882s-60.88-27.044-60.88-60.882m19.55 111.24h81.93v350.238h-81.93zM2557.98 226.389h81.93v105.978h80.43v68.376h-80.43v144.312c0 60.882 18.79 68.377 51.09 68.377 12.79 0 33.08-1.499 41.34-2.998v72.14c-12.79 2.264-36.84 4.496-60.89 4.496-39.83 0-113.47-5.262-113.47-123.263zM3097.6 332.331v351.738c0 54.854-16.52 96.186-45.86 124.762-28.57 26.311-69.14 40.598-118.73 40.598-49.6 0-92.46-12.788-120.27-36.07-24.81-21.782-38.33-52.621-39.07-90.924h82.67c3.76 38.334 22.55 59.383 75.17 59.383 48.86 0 84.16-29.309 84.16-103.713v-44.33c-21.78 37.569-60.88 57.884-112.74 57.884-86.43 0-129.26-61.615-129.26-145.81V332.395h81.93v196.168c0 51.857 17.29 90.925 75.91 90.925s84.16-45.861 84.16-105.978V332.395h81.93zM2222.01 847.169l29.05 57.087h-62l-23.34-46.435h-15.05v46.435h-53.97V722.662h87.68c38.9 0 67.45 28.799 67.45 67.707 0 24.653-11.42 45.128-29.82 56.8m-71.34-31.127h22.32c13.75 0 24.11-10.907 24.11-25.673s-10.36-25.673-23.85-25.673h-22.58v51.378zM2278.74 813.455c0-56.29 40.98-96.506 100.65-96.506 56.55 0 93.38 27.746 97.82 75.489h-57.09c-3.64-16.616-18.15-27.491-40.47-27.491-28.03 0-44.62 18.688-44.62 48.508 0 29.819 16.62 48.507 44.62 48.507 22.32 0 36.83-10.907 40.47-27.491h57.09c-4.4 47.743-41.24 75.489-97.82 75.489-59.67 0-100.65-40.216-100.65-96.505M2519.96 722.662h68.48l38.65 118.543 38.4-118.543h66.94v181.594h-51.89V789.062l-33.2 115.194h-39.96l-35.53-115.705v115.705h-51.89zM481.812 640.726l35.336 35.336a291.26 291.26 0 0 0 205.959 85.312c0-133.245-108.018-241.296-241.295-241.296S240.517 628.097 240.517 761.374a291.26 291.26 0 0 0 205.959-85.312zM325.126 369.297l-48.284 12.948C202.246 402.209 138.621 451.036 100 517.914c115.417 66.622 262.982 27.076 329.605-88.309 66.622-115.418 27.076-262.982-88.31-329.605a291.25 291.25 0 0 0-29.085 221.012l12.948 48.285zM638.563 369.294l12.948-48.284c19.997-74.628 9.504-154.103-29.117-221.012-115.417 66.622-154.932 214.187-88.309 329.604 66.622 115.418 214.187 154.932 329.604 88.309-38.621-66.909-102.246-115.704-176.841-135.7l-48.285-12.949z"/></g><defs><clipPath id="a"><path fill="#fff" d="M100 100h2997.63v809.963H100z"/></clipPath></defs></svg>